{
    "asset": {
        "version": "2.0",
        "generator": "Open Asset Import Library (assimp v5.4.0)"
    },
    "extensionsUsed": [
        "KHR_materials_volume",
        "FB_ngon_encoding"
    ],
    "accessors": [
        {
            "bufferView": 0,
            "byteOffset": 0,
            "componentType": 5126,
            "count": 1652,
            "type": "VEC3",
            "max": [
                500.0,
                498.32342529296875,
                500.0
            ],
            "min": [
                -499.9999694824219,
                -498.3235168457031,
                -500.0
            ]
        },
        {
            "bufferView": 1,
            "byteOffset": 0,
            "componentType": 5126,
            "count": 1652,
            "type": "VEC3",
            "max": [
                1.0,
                1.0,
                1.0
            ],
            "min": [
                -1.0,
                -1.0,
                -1.0
            ]
        },
        {
            "bufferView": 2,
            "byteOffset": 0,
            "componentType": 5126,
            "count": 1652,
            "type": "VEC2",
            "max": [
                0.9949010014533997,
                0.9949010610580444
            ],
            "min": [
                0.005099013447761536,
                0.005098938941955566
            ]
        },
        {
            "bufferView": 3,
            "byteOffset": 0,
            "componentType": 5125,
            "count": 9216,
            "type": "SCALAR",
            "max": [
                1651
            ],
            "min": [
                0
            ]
        }
    ],
    "buffers": [
        {
            "byteLength": 89728,
            "uri": "Earth_1_12756_0.bin"
        }
    ],
    "bufferViews": [
        {
            "buffer": 0,
            "byteOffset": 0,
            "byteLength": 19824,
            "target": 34962
        },
        {
            "buffer": 0,
            "byteOffset": 19824,
            "byteLength": 19824,
            "target": 34962
        },
        {
            "buffer": 0,
            "byteOffset": 39648,
            "byteLength": 13216,
            "target": 34962
        },
        {
            "buffer": 0,
            "byteOffset": 52864,
            "byteLength": 36864,
            "target": 34963
        }
    ],
    "images": [
        {
            "uri": "textures/image_0.png"
        },
        {
            "uri": "textures/image_1.png"
        }
    ],
    "materials": [
        {
            "name": "Default OBJ",
            "pbrMetallicRoughness": {
                "baseColorTexture": {
                    "index": 0
                },
                "metallicFactor": 0.25,
                "roughnessFactor": 0.8999999761581421
            },
            "normalTexture": {
                "index": 1
            }
        }
    ],
    "meshes": [
        {
            "name": "meshes[0]",
            "primitives": [
                {
                    "mode": 4,
                    "material": 0,
                    "indices": 3,
                    "attributes": {
                        "POSITION": 0,
                        "NORMAL": 1,
                        "TEXCOORD_0": 2
                    }
                }
            ]
        }
    ],
    "nodes": [
        {
            "name": "Earth_1_12756",
            "children": [
                1
            ]
        },
        {
            "name": "Cube001",
            "mesh": 0,
            "extras": {
                "name": "Cube.001"
            }
        }
    ],
    "samplers": [
        {
            "wrapS": 33071,
            "wrapT": 33071,
            "magFilter": 9729,
            "minFilter": 9986
        },
        {
            "magFilter": 9729,
            "minFilter": 9987
        }
    ],
    "scenes": [
        {
            "nodes": [
                0
            ]
        }
    ],
    "textures": [
        {
            "source": 0,
            "sampler": 0
        },
        {
            "source": 1,
            "sampler": 1
        }
    ],
    "scene": 0
}