{
  "accessors": [
    {
      "bufferView": 1,
      "componentType": 5126,
      "count": 65533,
      "max": [
        216.535400390625,
        70.37396240234375,
        29.724411010742188
      ],
      "min": [
        -216.53543090820313,
        -70.3740234375,
        -29.724395751953125
      ],
      "type": "VEC3"
    },
    {
      "bufferView": 1,
      "byteOffset": 786396,
      "componentType": 5126,
      "count": 65533,
      "max": [
        1.0,
        1.0,
        1.0
      ],
      "min": [
        -1.0,
        -1.0,
        -1.0
      ],
      "type": "VEC3"
    },
    {
      "bufferView": 0,
      "componentType": 5125,
      "count": 68451,
      "type": "SCALAR"
    },
    {
      "bufferView": 1,
      "byteOffset": 1572792,
      "componentType": 5126,
      "count": 32015,
      "max": [
        209.79351806640625,
        63.63201904296875,
        29.724411010742188
      ],
      "min": [
        -209.79348754882813,
        -63.63214111328125,
        -27.280685424804688
      ],
      "type": "VEC3"
    },
    {
      "bufferView": 1,
      "byteOffset": 1956972,
      "componentType": 5126,
      "count": 32015,
      "max": [
        0.9913572072982788,
        1.0,
        1.0
      ],
      "min": [
        -1.0,
        -0.9916722178459167,
        -0.26706787943840027
      ],
      "type": "VEC3"
    },
    {
      "bufferView": 0,
      "byteOffset": 273804,
      "componentType": 5125,
      "count": 32601,
      "type": "SCALAR"
    }
  ],
  "asset": {
    "extras": {
      "author": "anast.popo (https://sketchfab.com/anast.popo)",
      "license": "CC-BY-4.0 (http://creativecommons.org/licenses/by/4.0/)",
      "source": "https://sketchfab.com/3d-models/ompass-pools-model-aqua110-c2ddaacc394c42d6a2e32aa3bd8d19c5",
      "title": "Сompass Pools Model Aqua110"
    },
    "generator": "Sketchfab-16.63.0",
    "version": "2.0"
  },
  "bufferViews": [
    {
      "buffer": 0,
      "byteLength": 404208,
      "name": "floatBufferViews",
      "target": 34963
    },
    {
      "buffer": 0,
      "byteLength": 2341152,
      "byteOffset": 404208,
      "byteStride": 12,
      "name": "floatBufferViews",
      "target": 34962
    }
  ],
  "buffers": [
    {
      "byteLength": 2745360,
      "uri": "scene.bin"
    }
  ],
  "extensionsRequired": [
    "KHR_materials_pbrSpecularGlossiness"
  ],
  "extensionsUsed": [
    "KHR_materials_pbrSpecularGlossiness"
  ],
  "materials": [
    {
      "doubleSided": true,
      "extensions": {
        "KHR_materials_pbrSpecularGlossiness": {
          "diffuseFactor": [
            1.0,
            1.0,
            1.0,
            1.0
          ],
          "glossinessFactor": 0.0,
          "specularFactor": [
            0.0,
            0.0,
            0.0
          ]
        }
      },
      "name": "Nova_Blue"
    }
  ],
  "meshes": [
    {
      "name": "Layer:0_Nova Blue_0",
      "primitives": [
        {
          "attributes": {
            "NORMAL": 1,
            "POSITION": 0
          },
          "indices": 2,
          "material": 0,
          "mode": 4
        }
      ]
    },
    {
      "name": "Layer:0_Nova Blue_0",
      "primitives": [
        {
          "attributes": {
            "NORMAL": 4,
            "POSITION": 3
          },
          "indices": 5,
          "material": 0,
          "mode": 4
        }
      ]
    }
  ],
  "nodes": [
    {
      "children": [
        1
      ],
      "matrix": [
        1.0,
        0.0,
        0.0,
        0.0,
        0.0,
        2.220446049250313e-16,
        -1.0,
        0.0,
        0.0,
        1.0,
        2.220446049250313e-16,
        0.0,
        0.0,
        0.0,
        0.0,
        1.0
      ],
      "name": "Sketchfab_model"
    },
    {
      "children": [
        2
      ],
      "matrix": [
        0.02539999969303608,
        0.0,
        0.0,
        0.0,
        0.0,
        0.0,
        0.02539999969303608,
        0.0,
        0.0,
        -0.02539999969303608,
        0.0,
        0.0,
        0.0,
        0.0,
        0.0,
        1.0
      ],
      "name": "1181e3063cdd4c84a389ead11e9a2c3b.fbx"
    },
    {
      "children": [
        3
      ],
      "name": "RootNode"
    },
    {
      "children": [
        4,
        5
      ],
      "matrix": [
        1.0,
        0.0,
        0.0,
        0.0,
        0.0,
        2.220446049250313e-16,
        -1.0,
        0.0,
        0.0,
        1.0,
        2.220446049250313e-16,
        0.0,
        882.3154907226563,
        215.157470703125,
        224.62484741210938,
        1.0
      ],
      "name": "Layer:0"
    },
    {
      "mesh": 0,
      "name": "Layer:0_Nova Blue_0"
    },
    {
      "mesh": 1,
      "name": "Layer:0_Nova Blue_0"
    }
  ],
  "scene": 0,
  "scenes": [
    {
      "name": "Sketchfab_Scene",
      "nodes": [
        0
      ]
    }
  ]
}
